<svg width="52" height="35" viewBox="0 0 52 35" fill="none" xmlns="http://www.w3.org/2000/svg">
<g clip-path="url(#clip0_0_1)">
<path d="M15.5067 6.5625C15.8073 6.5625 16.0956 6.44727 16.3081 6.24215C16.5207 6.03703 16.6401 5.75883 16.6401 5.46875C16.6401 5.17867 16.5207 4.90047 16.3081 4.69535C16.0956 4.49023 15.8073 4.375 15.5067 4.375H8.70592C8.40531 4.375 8.11701 4.49023 7.90445 4.69535C7.69188 4.90047 7.57246 5.17867 7.57246 5.46875C7.57246 5.75883 7.69188 6.03703 7.90445 6.24215C8.11701 6.44727 8.40531 6.5625 8.70592 6.5625H15.5067Z" fill="#1C274C"/>
<path d="M23.4409 9.66875V5.29375C23.4469 4.60156 23.3109 3.91506 23.0409 3.27375C22.7709 2.63245 22.3721 2.04901 21.8675 1.557C21.3629 1.065 20.7624 0.67414 20.1007 0.406927C19.4389 0.139713 18.729 0.00141807 18.0116 0L6.20098 0C4.76197 0.00288991 3.38275 0.555789 2.36522 1.53768C1.34768 2.51957 0.774708 3.85046 0.771713 5.23906V29.7609C0.774708 31.1495 1.34768 32.4804 2.36522 33.4623C3.38275 34.4442 4.76197 34.9971 6.20098 35H18.0116C19.4506 34.9971 20.8298 34.4442 21.8474 33.4623C22.8649 32.4804 23.4379 31.1495 23.4409 29.7609V29.7062C25.4588 28.8534 27.1754 27.4516 28.3809 25.6723C29.5863 23.893 30.2283 21.8133 30.2283 19.6875C30.2283 17.5617 29.5863 15.482 28.3809 13.7027C27.1754 11.9234 25.4588 10.5216 23.4409 9.66875ZM18.0116 32.8125H6.20098C5.36227 32.8125 4.55792 32.491 3.96486 31.9187C3.37181 31.3464 3.03863 30.5703 3.03863 29.7609V5.23906C3.03863 4.42974 3.37181 3.65356 3.96486 3.08128C4.55792 2.509 5.36227 2.1875 6.20098 2.1875H18.0116C18.8503 2.1875 19.6547 2.509 20.2477 3.08128C20.8408 3.65356 21.174 4.42974 21.174 5.23906V8.96875C20.4276 8.82399 19.6683 8.75072 18.907 8.75C15.9332 8.7497 13.0803 9.88627 10.9728 11.9109V10.9375C10.9728 10.6474 10.8534 10.3692 10.6409 10.1641C10.4283 9.95898 10.14 9.84375 9.83938 9.84375C9.53877 9.84375 9.25047 9.95898 9.03791 10.1641C8.82534 10.3692 8.70592 10.6474 8.70592 10.9375V28.4375C8.70592 28.7276 8.82534 29.0058 9.03791 29.2109C9.25047 29.416 9.53877 29.5312 9.83938 29.5312C10.14 29.5312 10.4283 29.416 10.6409 29.2109C10.8534 29.0058 10.9728 28.7276 10.9728 28.4375V27.4641C13.0803 29.4887 15.9332 30.6253 18.907 30.625C19.6414 30.623 20.3739 30.5534 21.0946 30.4172C20.9399 31.0954 20.55 31.7023 19.9895 32.1378C19.429 32.5733 18.7313 32.8113 18.0116 32.8125ZM18.907 28.4375C17.2858 28.4361 15.6946 28.0153 14.2992 27.2189C12.9037 26.4225 11.7551 25.2797 10.9728 23.9094V15.4656C11.7447 14.1135 12.8736 12.9825 14.2449 12.1874C15.6161 11.3923 17.181 10.9614 18.7806 10.9385C20.3802 10.9156 21.9576 11.3014 23.3527 12.0569C24.7478 12.8123 25.911 13.9105 26.7241 15.24C27.5373 16.5694 27.9715 18.0828 27.9826 19.6265C27.9938 21.1702 27.5815 22.6892 26.7877 24.0295C25.9938 25.3697 24.8466 26.4835 23.4626 27.2577C22.0785 28.0318 20.5068 28.4389 18.907 28.4375Z" fill="#1C274C"/>
<path d="M18.9071 16.4062H21.174C21.4746 16.4062 21.7629 16.291 21.9754 16.0859C22.188 15.8808 22.3074 15.6026 22.3074 15.3125C22.3074 15.0224 22.188 14.7442 21.9754 14.5391C21.7629 14.334 21.4746 14.2188 21.174 14.2188H20.0405C20.0405 13.9287 19.9211 13.6505 19.7085 13.4454C19.496 13.2402 19.2077 13.125 18.9071 13.125C18.6064 13.125 18.3181 13.2402 18.1056 13.4454C17.893 13.6505 17.7736 13.9287 17.7736 14.2188V14.4156C17.024 14.6781 16.3938 15.1865 15.9932 15.8519C15.5926 16.5173 15.4471 17.2973 15.5822 18.0557C15.7172 18.8142 16.1242 19.5026 16.732 20.0008C17.3397 20.499 18.1096 20.7753 18.9071 20.7812C19.2077 20.7812 19.496 20.8965 19.7085 21.1016C19.9211 21.3067 20.0405 21.5849 20.0405 21.875C20.0405 22.1651 19.9211 22.4433 19.7085 22.6484C19.496 22.8535 19.2077 22.9688 18.9071 22.9688H16.6401C16.3395 22.9688 16.0512 23.084 15.8387 23.2891C15.6261 23.4942 15.5067 23.7724 15.5067 24.0625C15.5067 24.3526 15.6261 24.6308 15.8387 24.8359C16.0512 25.041 16.3395 25.1562 16.6401 25.1562H17.7736C17.7736 25.4463 17.893 25.7245 18.1056 25.9296C18.3181 26.1348 18.6064 26.25 18.9071 26.25C19.2077 26.25 19.496 26.1348 19.7085 25.9296C19.9211 25.7245 20.0405 25.4463 20.0405 25.1562V24.9594C20.7901 24.6969 21.4203 24.1885 21.8209 23.5231C22.2215 22.8577 22.367 22.0777 22.2319 21.3193C22.0969 20.5608 21.6899 19.8724 21.0821 19.3742C20.4744 18.876 19.7045 18.5997 18.9071 18.5938C18.6064 18.5938 18.3181 18.4785 18.1056 18.2734C17.893 18.0683 17.7736 17.7901 17.7736 17.5C17.7736 17.2099 17.893 16.9317 18.1056 16.7266C18.3181 16.5215 18.6064 16.4062 18.9071 16.4062Z" fill="#1C274C"/>
</g>
<path d="M34.0201 20.7172L41.7835 20.6623L40.8907 21.5854C40.3305 22.1847 40.0192 22.9944 40.0251 23.8362C40.0311 24.6781 40.3539 25.4833 40.9225 26.0746C41.4912 26.6659 42.2591 26.9949 43.0573 26.9892C43.8555 26.9836 44.6187 26.6437 45.1789 26.0444L51.129 19.6792C51.4079 19.3833 51.6284 19.0321 51.7778 18.6458C51.9273 18.2595 52.0027 17.8457 51.9997 17.4284C51.9968 17.011 51.9155 16.5984 51.7606 16.2142C51.6057 15.83 51.3802 15.482 51.0972 15.1901L45.0575 8.90977C44.7768 8.61543 44.4436 8.38259 44.0772 8.22468C43.7108 8.06677 43.3184 7.98691 42.9227 7.98971C42.527 7.99251 42.1358 8.07793 41.7717 8.24101C41.4076 8.4041 41.0777 8.64163 40.8012 8.93992C40.5223 9.2358 40.3018 9.58703 40.1523 9.97335C40.0029 10.3597 39.9275 10.7734 39.9304 11.1908C39.9334 11.6081 40.0147 12.0208 40.1696 12.4049C40.3245 12.7891 40.5499 13.1372 40.833 13.4291L41.7387 14.3395L33.9753 14.3945C33.1803 14.4001 32.4203 14.7386 31.8624 15.3355C31.3044 15.9323 30.9943 16.7387 31.0003 17.5771C31.0062 18.4155 31.3277 19.2174 31.894 19.8063C32.4604 20.3952 33.2251 20.7229 34.0201 20.7172Z" fill="#1C274C"/>
<defs>
<clipPath id="clip0_0_1">
<rect width="31" height="35" fill="white"/>
</clipPath>
</defs>
</svg>
