<svg xmlns="http://www.w3.org/2000/svg" fill="none" viewBox="2.45 6.5 42.1 35"><path fill-rule="evenodd" clip-rule="evenodd" d="M19.4728 6.5H27.5271C31.1261 6.49996 33.9767 6.49994 36.2076 6.80628C38.5036 7.12152 40.362 7.78576 41.8277 9.28248C43.1554 10.6386 43.8158 12.3263 44.1573 14.3822C44.4068 15.8832 44.4976 17.6591 44.5315 19.7487C44.545 19.8304 44.5521 19.9144 44.5521 20C44.5521 20.0706 44.5474 20.14 44.538 20.208C44.545 20.7808 44.5486 21.3764 44.5503 21.9956C44.5527 22.824 43.897 23.4976 43.0859 23.5C42.2747 23.5024 41.6152 22.8328 41.6128 22.0044C41.6122 21.8336 41.6116 21.6656 41.6109 21.5H5.38932C5.3856 22.2768 5.38542 23.1082 5.38542 24C5.38542 27.8136 5.38854 30.523 5.65912 32.5784C5.924 34.5904 6.42077 35.7498 7.24956 36.5962C8.07835 37.4426 9.21349 37.95 11.1838 38.2204C13.1963 38.4968 15.8492 38.5 19.5833 38.5H22.5208C23.332 38.5 23.9896 39.1716 23.9896 40C23.9896 40.8284 23.332 41.5 22.5208 41.5H19.4729C15.8739 41.5 13.0233 41.5 10.7923 41.1938C8.49635 40.8784 6.63799 40.2142 5.17243 38.7176C3.7069 37.2208 3.05649 35.3228 2.74782 32.978C2.44786 30.6996 2.44788 27.7884 2.44792 24.1128V23.8872C2.4479 22.5636 2.4479 21.3392 2.46191 20.2078C2.45268 20.1398 2.44792 20.0704 2.44792 20C2.44792 19.9143 2.45495 19.8303 2.46847 19.7486C2.49813 17.9342 2.57065 16.3677 2.74782 15.022C3.05649 12.6771 3.7069 10.7792 5.17243 9.28248C6.63799 7.78576 8.49635 7.12152 10.7923 6.80628C13.0233 6.49994 15.8739 6.49996 19.4728 6.5ZM5.43648 18.5H41.5633C41.5165 17.0704 41.428 15.8876 41.2613 14.8841C40.9815 13.2003 40.5044 12.1738 39.7505 11.4038C38.9217 10.5574 37.7864 10.05 35.8164 9.77952C33.8038 9.50318 31.1508 9.5 27.4167 9.5H19.5833C15.8492 9.5 13.1963 9.50318 11.1838 9.77952C9.21349 10.05 8.07835 10.5574 7.24956 11.4038C6.42077 12.2502 5.924 13.4095 5.65912 15.4217C5.54184 16.3127 5.4748 17.3265 5.43648 18.5ZM30.3542 26.5C31.1653 26.5 31.8229 27.1716 31.8229 28V36.3786L33.2323 34.9394C33.8059 34.3536 34.7357 34.3536 35.3093 34.9394C35.8829 35.5252 35.8829 36.4748 35.3093 37.0606L31.3927 41.0606C30.8191 41.6464 29.8893 41.6464 29.3157 41.0606L25.399 37.0606C24.8254 36.4748 24.8254 35.5252 25.399 34.9394C25.9726 34.3536 26.9024 34.3536 27.476 34.9394L28.8854 36.3786V28C28.8854 27.1716 29.543 26.5 30.3542 26.5ZM38.1282 26.9394C38.7018 26.3536 39.6316 26.3536 40.2052 26.9394L44.1218 30.9394C44.6954 31.5252 44.6954 32.4748 44.1218 33.0606C43.5482 33.6464 42.6184 33.6464 42.0448 33.0606L40.6354 31.6214V40C40.6354 40.8284 39.9778 41.5 39.1667 41.5C38.3555 41.5 37.6979 40.8284 37.6979 40V31.6214L36.2885 33.0606C35.7149 33.6464 34.7851 33.6464 34.2115 33.0606C33.6379 32.4748 33.6379 31.5252 34.2115 30.9394L38.1282 26.9394ZM10.2813 32C10.2813 31.1716 10.9388 30.5 11.75 30.5H19.5833C20.3945 30.5 21.0521 31.1716 21.0521 32C21.0521 32.8284 20.3945 33.5 19.5833 33.5H11.75C10.9388 33.5 10.2813 32.8284 10.2813 32Z" fill="#1C274C"></path></svg>